<?xml version="1.0" encoding="utf-8"?>
<!-- Generator: Adobe Adobe Illustrator 24.2.0, SVG Export Plug-In . SVG Version: 6.00 Build 0)  -->
<svg version="1.1" id="Layer_1" xmlns="http://www.w3.org/2000/svg" xmlns:xlink="http://www.w3.org/1999/xlink" x="0px" y="0px"
	 viewBox="0 0 185 146" style="enable-background:new 0 0 185 146;" xml:space="preserve">
<g>
	<path d="M14.4,44.9c0-5.51,4.61-9.38,10.09-9.38c4.56,0,9.65,2.89,9.65,7.79c0,3.58-2.69,6.08-6.22,6.08
		c-3.38,0-5.34-2.79-4.46-5.78c2.94-0.05,4.56-2.3,4.56-4.36c0-1.67-0.98-3.43-3.87-3.43c-4.65,0-7.74,3.87-7.74,9.06
		c0,5.49,4.16,10.53,13.03,10.53s12.69-4.51,12.69-9.31c0-9.06-18.62-10-18.62-20.97c0-6.81,6.96-10.58,14.23-10.58
		c6.49,0,11.73,2.5,11.73,7.45c0,4.21-3.19,6.12-6.03,6.12c-2.45,0-5.1-1.62-4.46-5.14c2.4-0.54,3.48-2.25,3.48-4.02
		c0-2.11-1.13-4.12-4.7-4.12c-3.92,0-6.52,2.06-6.52,5.63c0,7.5,17.93,8.87,17.93,19.84c0,8.92-8.38,15.38-19.75,15.38
		C19.11,55.71,14.4,50.61,14.4,44.9z"/>
	<path d="M69.97,37.6c-4.46,1.78-8.92,3.56-10.96,6.88c6.71-2.49,18.36-1.61,18.36-5.14c0-0.69-0.44-1.18-1.08-1.52l0.1-0.15
		c3.04,0.88,4.7,2.79,4.7,5.98c0,4.12-3.82,7.06-7.69,7.06c-5.14,0-10.02-6.08-13.45-6.08c-0.91,0-2.25,0.42-2.3,1.69
		c-0.02,0.73,0.51,1.79,2.43,1.3c0.54,2.21-0.98,3.33-2.4,3.33c-1.27,0-2.45-0.83-2.45-2.45c0-2.11,2.14-3.32,3.39-3.86
		c1.96-3.63,6.68-5.51,11.26-7.33c4.55-1.9,8.97-3.63,10.31-7.04c-0.09,0.04-0.18,0.07-0.27,0.1c-6.37,2.35-18.03,0.54-18.03,4.7
		c0,1.13,0.83,1.76,1.57,1.96l-0.1,0.15c-3.92-0.59-5.1-3.72-5.1-6.08c0-3.48,2.06-6.96,6.71-6.96c5.49,0,10.85,5.95,14.23,5.95
		c0.78,0,2.23-0.34,2.23-1.62c0-1.08-1.03-1.74-2.65-1.4c-0.39-1.52,0.59-3.23,2.4-3.23c1.23,0,2.4,0.88,2.4,2.4
		c0,1.85-1.22,3.06-3.03,3.86C79.26,33.85,74.61,35.67,69.97,37.6L69.97,37.6z"/>
	<path d="M88.73,42.77l2.6-14.6c0.34-1.91-0.42-2.16-2.06-1.81v-0.12c1.71-1.05,5.14-1.98,7.5-1.98c2.94,0,3.75,1.2,3.19,4.36
		L98,39.68c-1.08,6.17-1.23,9.68,0.93,10.51v0.12c-1.27,0.25-2.45,0.34-3.63,0.34C91.16,50.66,87.61,48.99,88.73,42.77z
		 M93.54,22.24c1-1.67,1.49-5.39,0.02-7.25c1.18-2.16,3.43-3.38,5.44-3.38c1.86,0,4.07,0.98,4.07,3.72c0,3.82-4.41,7.2-9.46,7.01
		L93.54,22.24z"/>
	<path d="M106.91,42.77l4.46-27.24c0.29-1.91-0.44-2.16-2.06-1.81v-0.12c1.71-1.05,5.14-1.98,7.5-1.98c2.79,0,3.8,1.05,3.23,4.36
		L116,39.68c-1.05,6.17-1.05,9.68,1.1,10.51v0.12c-1.27,0.25-2.45,0.34-3.63,0.34C109.31,50.66,105.88,48.99,106.91,42.77z"/>
	<path d="M125.75,42.75l2.28-14.48c0.29-1.91-0.44-2.16-2.06-1.81v-0.12c1.71-1.05,5.14-1.98,7.5-1.98c2.79,0,3.92,1.08,3.38,4.36
		l-2.23,13.47c-0.78,4.7-0.96,6.83,1.37,6.83c5.32,0,12.98-8.67,12.98-14.65c0-2.4-1.3-3.31-2.92-3.31c-1.35,0-2.57,0.64-3.11,2.06
		c-2.3-0.29-3.67-2.25-3.67-4.41c0-2.6,2.3-4.56,5.05-4.56c2.94,0,5.54,2.3,5.54,7.3c0,10-9.48,19.26-18.32,19.26
		C126.93,50.71,124.87,48.26,125.75,42.75z"/>
	<path d="M155.72,42.77l2.6-14.6c0.34-1.91-0.42-2.16-2.06-1.81v-0.12c1.71-1.05,5.14-1.98,7.5-1.98c2.94,0,3.75,1.2,3.19,4.36
		l-1.96,11.07c-1.08,6.17-1.23,9.68,0.93,10.51v0.12c-1.27,0.25-2.45,0.34-3.63,0.34C158.14,50.66,154.59,48.99,155.72,42.77z
		 M160.52,22.24c1-1.67,1.49-5.39,0.02-7.25c1.18-2.16,3.43-3.38,5.44-3.38c1.86,0,4.07,0.98,4.07,3.72c0,3.82-4.41,7.2-9.46,7.01
		L160.52,22.24z"/>
	<path d="M44.6,91.1c0.53,0,1.14-0.15,1.56-0.49l0.1,0.08c-1.9,3.99-4.98,4.9-7.14,4.9c-2.84,0-5.43-1.58-7.58-3.92
		c-2.83,2.99-5.83,3.96-8.87,3.96c-4.64,0-6.91-2.93-6.91-6.38c0-4.85,4.35-8.03,9.93-9.09c-0.28-1.27-0.43-2.47-0.43-3.53
		c0-4.94,3.8-8.17,8.97-8.17c3.72,0,4.86,1.63,4.86,3.15c0,2.3-2.29,4.34-6.63,5.82c0.79,2.44,2.05,5.02,3.58,7.28
		c-0.22-5.85,2.78-9.37,6.44-9.37c3.5,0,5.36,2.09,5.36,5.24c0,3.23-1.94,5.97-5.7,5.97c-2.89,0-4.45-1.79-4.45-3.95
		c0-1.21,0.57-3.23,2.55-3.91c0.46,1.03,1.22,1.6,2.36,1.6c1.48,0,2.51-0.84,2.51-2.32c0-1.18-0.8-2.39-2.62-2.39
		c-3.66,0-6.53,3.57-6.22,9.46C38.65,88.48,41.7,91.1,44.6,91.1L44.6,91.1z M31.38,91.49c-2.76-3.07-4.78-7.38-5.65-11.13
		c-1.73,0.81-2.8,3.13-2.8,5.87c0,3.15,1.67,6.19,5.13,6.19C29.07,92.43,30.34,92.2,31.38,91.49z M31.55,72.56
		c0,1.38,0.3,3,0.83,4.69c2.01-1.2,3.46-4.09,3.46-6.39c0-1.14-0.34-2.2-1.63-2.2C32.58,68.64,31.55,70.13,31.55,72.56L31.55,72.56z
		"/>
	<path d="M54.78,99.54c-2.4,0-4.1,0.96-5.45,2.5l-0.19-0.14c4.66-5.28,6.02-7.18,6.84-12.82l1.58-10.94
		c1.68-11.71,14.35-20.74,20.4-20.74c3.36,0,4.8,2.11,4.8,4.08c0,2.93-2.3,4.46-4.46,4.46c-1.44,0-3.02-0.72-3.41-2.4
		c1.27-0.48,1.85-1.54,1.85-2.57c0-1.2-0.82-2.33-2.26-2.33c-3.5,0-5.26,6.96-5.78,10.18l-2.45,15.31
		c-1.49,9.22-8.16,7.82-15.24,16.08l0.05,0.05c4.15-3.84,7.56-6.14,11.74-6.14c9.89,0,20.64,7.1,28.9,7.1c2.06,0,3.86-0.6,5.02-2.09
		l0.12,0.07c-2.4,7.25-7.34,9.55-12.43,9.55C74.17,108.76,61.36,99.54,54.78,99.54z"/>
	<path d="M81.23,87.92l2.54-14.31c0.34-1.87-0.41-2.11-2.02-1.78v-0.12c1.68-1.03,5.04-1.94,7.34-1.94c2.88,0,3.67,1.18,3.12,4.27
		L90.3,84.9c-1.06,6.05-1.2,9.48,0.91,10.3v0.12c-1.25,0.24-2.4,0.34-3.55,0.34C83.6,95.65,80.12,94.02,81.23,87.92z M85.93,67.81
		c0.98-1.63,1.46-5.28,0.02-7.1c1.15-2.11,3.36-3.31,5.33-3.31c1.82,0,3.98,0.96,3.98,3.65c0,3.74-4.32,7.06-9.26,6.86L85.93,67.81z
		"/>
	<path d="M120.08,84.85c-1.06,6.05-1.15,9.53,0.96,10.34v0.12c-1.25,0.24-2.4,0.34-3.55,0.34c-4.03,0-7.56-1.7-6.26-7.73l1.58-7.39
		l-0.14-0.02c-2.98,11.95-6.55,15.19-10.87,15.19c-5.06,0-6.82-4.51-6.82-8.88c0-8.9,7.66-17.14,16.27-17.14
		c2.78,0,4.66,1.97,7.44,1.97c1.2,0,2.83-0.43,3.94-1.68L120.08,84.85z M103.67,89.46c0,2.16,0.41,3.98,1.8,3.98
		c2.76,0,5.98-7.78,7.3-14.98l0.53-2.88c0.48-2.59,0.74-5.62-1.8-5.62C106.91,69.97,103.67,82.26,103.67,89.46z"/>
	<path d="M125.67,88.16l2.59-14.54c0.34-1.87-0.43-2.11-2.02-1.78v-0.12c1.68-1.03,5.04-1.94,7.34-1.94c2.74,0,3.86,1.06,3.17,4.27
		l-2.38,10.85h0.14c3.22-12.24,7.46-15.22,11.55-15.22c6,0,5.69,4.92,4.97,8.21l-1.54,7.01h0.14c3.22-12.24,7.46-15.22,11.54-15.22
		c6,0,5.62,5.04,5.04,8.35l-1.15,6.82c-1.01,6.05-1.15,9.53,0.96,10.34v0.12c-1.25,0.24-2.4,0.34-3.55,0.34
		c-4.08,0-7.39-1.63-6.43-7.73l1.99-12.43c0.38-2.38,0.19-3.41-1.01-3.41c-2.23,0-5.3,5.81-7.08,12.96
		c-0.82,3.31-2.16,9.34-0.53,10.15v0.12c-1.68,0.24-3.02,0.38-4.18,0.38c-3.79,0-5.47-1.63-4.46-7.54l2.14-12.67
		c0.41-2.38,0.19-3.41-1.01-3.41c-2.23,0-5.3,5.81-7.08,12.96c-0.82,3.31-2.16,9.34-0.53,10.15v0.12c-1.68,0.24-3.02,0.38-4.18,0.38
		C126.35,95.7,124.62,94.07,125.67,88.16z"/>
	<path d="M24.33,123.75c-0.5,3.21-0.82,4.89,2.1,4.89l-0.01,0.12H14.88l0.01-0.12c2.89,0,3.14-1.58,3.67-4.89l1.48-9.33
		c-1.02,1.05-2.14,1.98-3.38,2.68l-0.04-0.11c3.18-1.74,5.56-5.14,6.93-7.74h3.07L24.33,123.75z"/>
	<path d="M28.85,120.23c4.33-5.12,15.62-5.83,15.62,0.55c0,4.54-4.74,8.21-10.62,8.21c-2.24,0-6.77-0.61-6.77-3.9
		c0-1.92,1.48-3.46,3.37-3.46c1.37,0,2.48,0.89,2.34,2.51c-0.98,0.47-1.53,1.39-1.53,2.47c0,1.35,1.1,2.24,2.61,2.24
		c2.66,0,4.5-2.69,4.5-5.62c0-4.59-6.01-4.79-9.79-2.63l2.17-6.41c0.67-1.95,1.7-5.07,4.52-5.07c2.06,0,4.29,1.7,7.08,1.7
		c1.62,0,2.96-0.58,3.43-1.78l0.1,0.01c-1.02,3.16-2.58,6.45-6.12,6.45c-2.62,0-5.77-1.78-7.81-1.78c-0.4,0-0.71,0.07-0.95,0.18
		L28.85,120.23z"/>
	<path d="M44.89,126.06c0-1.62,1.37-2.93,3.07-2.93c1.7,0,3.07,1.31,3.07,2.93c0,1.64-1.39,2.93-3.07,2.93
		C46.25,128.99,44.89,127.68,44.89,126.06z"/>
	<path d="M52.92,120.93c0-6.55,4.95-11.9,10.98-11.9c4.95,0,7.83,3.4,7.83,8.06c0,6.55-4.95,11.9-10.98,11.9
		C55.81,128.99,52.92,125.6,52.92,120.93z M65.85,113.07c0-2.63-0.63-3.9-1.97-3.9c-2.45,0-5.07,8.17-5.07,15.78
		c0,2.62,0.61,3.9,1.95,3.9C63.22,128.85,65.85,120.68,65.85,113.07z"/>
	<path d="M70.64,125.1c0-1.94,1.48-3.47,3.37-3.47c1.37,0,2.48,0.89,2.34,2.51c-0.98,0.47-1.53,1.39-1.53,2.52
		c0,1.37,1,2.19,2.69,2.19c2.16,0,3.75-3,3.75-7.01c0-1.83-0.64-3.32-3-3.32h-0.92l0.03-0.14h0.88c2.56,0,4.66-2.96,4.66-6.59
		c0-1.63-0.68-2.62-2.08-2.62c-2.04,0-3.22,1.44-3.22,2.79c0,0.7,0.36,1.2,0.86,1.45c-0.36,1.56-1.7,2.34-2.96,2.34
		c-1.17,0-2.23-0.64-2.23-2.12c0-2.79,2.98-4.6,7.58-4.6c3.81,0,7.44,0.7,7.44,3.68c0,3.32-3.22,5.39-8.95,5.71v0.04
		c3.86,0,7.95,0.67,7.95,4.06c0,3.9-3.9,6.47-9.81,6.47C75.23,128.99,70.64,128.4,70.64,125.1z"/>
	<path d="M88.51,126.06c0-1.62,1.37-2.93,3.07-2.93c1.7,0,3.07,1.31,3.07,2.93c0,1.64-1.39,2.93-3.07,2.93
		C89.88,128.99,88.51,127.68,88.51,126.06z"/>
	<path d="M95.13,127.41c-0.08,0.46-0.15,0.79-0.18,1.35h-0.14c0.42-5.32,4.38-7.53,7.75-9.67c2.86-1.81,5.13-4.4,5.13-7.5
		c0-1.39-0.63-2.42-2.27-2.42c-1.9,0-3.36,1.39-3.36,3.16c0,0.79,0.39,1.24,0.89,1.55c-0.39,1.62-1.76,2.51-3.15,2.51
		c-1.56,0-2.45-0.86-2.45-2.29c0-3.96,5.27-5.07,8.08-5.07c5.27,0,7.83,1.5,7.83,4.07c0,3.07-3.04,5.59-8.15,6.8
		c-3.58,0.84-6.89,1.42-8.91,4.78l0.01-0.01c1.14-1.88,2.8-2.48,4.59-2.48c2.73,0,5.34,1.8,8.29,1.8c1.58,0,2.59-0.54,3.11-1.88
		l0.11,0.01c-1.03,3.21-2.58,6.87-6.29,6.87C102.92,128.99,96.07,125.64,95.13,127.41z"/>
	<path d="M112.87,120.93c0-6.55,4.95-11.9,10.98-11.9c4.95,0,7.83,3.4,7.83,8.06c0,6.55-4.95,11.9-10.98,11.9
		C115.77,128.99,112.87,125.6,112.87,120.93z M125.81,113.07c0-2.63-0.63-3.9-1.97-3.9c-2.45,0-5.07,8.17-5.07,15.78
		c0,2.62,0.61,3.9,1.95,3.9C123.17,128.85,125.81,120.68,125.81,113.07z"/>
	<path d="M130.56,127.41c-0.08,0.46-0.15,0.79-0.18,1.35h-0.14c0.42-5.32,4.38-7.53,7.75-9.67c2.86-1.81,5.13-4.4,5.13-7.5
		c0-1.39-0.63-2.42-2.27-2.42c-1.9,0-3.36,1.39-3.36,3.16c0,0.79,0.39,1.24,0.89,1.55c-0.39,1.62-1.76,2.51-3.15,2.51
		c-1.56,0-2.45-0.86-2.45-2.29c0-3.96,5.27-5.07,8.08-5.07c5.27,0,7.83,1.5,7.83,4.07c0,3.07-3.04,5.59-8.15,6.8
		c-3.58,0.84-6.89,1.42-8.91,4.78l0.01-0.01c1.14-1.88,2.8-2.48,4.59-2.48c2.73,0,5.34,1.8,8.29,1.8c1.58,0,2.59-0.54,3.11-1.88
		l0.11,0.01c-1.03,3.21-2.58,6.87-6.29,6.87C138.35,128.99,131.49,125.64,130.56,127.41z"/>
	<path d="M148.91,120.23c4.33-5.12,15.62-5.83,15.62,0.55c0,4.54-4.74,8.21-10.62,8.21c-2.24,0-6.77-0.61-6.77-3.9
		c0-1.92,1.48-3.46,3.37-3.46c1.37,0,2.48,0.89,2.34,2.51c-0.98,0.47-1.53,1.39-1.53,2.47c0,1.35,1.1,2.24,2.61,2.24
		c2.66,0,4.5-2.69,4.5-5.62c0-4.59-6.01-4.79-9.79-2.63l2.17-6.41c0.67-1.95,1.7-5.07,4.52-5.07c2.06,0,4.29,1.7,7.08,1.7
		c1.62,0,2.96-0.58,3.43-1.78l0.1,0.01c-1.02,3.16-2.58,6.45-6.12,6.45c-2.62,0-5.77-1.78-7.81-1.78c-0.4,0-0.71,0.07-0.95,0.18
		L148.91,120.23z"/>
</g>
</svg>
